<svg width="935" height="98" viewBox="0 0 935 98" fill="none" xmlns="http://www.w3.org/2000/svg">
<path d="M79.856 47.992C78 51.128 75.792 54.232 73.232 57.304C70.736 60.376 68.112 62.936 65.36 64.984C64.336 65.688 63.024 66.328 61.424 66.904C59.888 67.416 58.288 67.672 56.624 67.672C55.28 67.672 54.032 67.448 52.88 67C51.792 66.488 50.896 65.72 50.192 64.696C49.488 63.544 49.04 62.168 48.848 60.568C48.72 58.904 48.656 57.56 48.656 56.536C48.656 51.864 47.984 48.344 46.64 45.976C45.36 43.544 43.984 42.072 42.512 41.56C41.296 44.056 39.824 46.776 38.096 49.72C36.368 52.6 34.384 55.448 32.144 58.264C29.968 61.08 27.536 63.672 24.848 66.04C22.224 68.344 19.376 70.2 16.304 71.608C13.296 73.016 10.096 73.72 6.704 73.72C4.528 73.72 2.896 73.144 1.808 71.992C0.656 70.84 0.0799999 69.528 0.0799999 68.056C0.0799999 66.712 0.56 65.4 1.52 64.12C2.416 62.84 3.76 61.912 5.552 61.336C5.68 61.272 5.872 61.24 6.128 61.24C6.704 61.24 6.992 61.432 6.992 61.816C6.992 62.264 6.64 62.584 5.936 62.776C4.848 63.032 3.952 63.704 3.248 64.792C2.544 65.816 2.192 66.936 2.192 68.152C2.192 69.176 2.512 70.104 3.152 70.936C3.856 71.832 4.976 72.28 6.512 72.28C9.264 72.28 11.888 71.416 14.384 69.688C16.944 68.024 19.312 65.848 21.488 63.16C23.728 60.408 25.808 57.464 27.728 54.328C29.648 51.192 31.376 48.152 32.912 45.208C34.448 42.2 35.792 39.64 36.944 37.528C40.528 30.872 43.952 25.464 47.216 21.304C50.544 17.08 53.488 13.88 56.048 11.704C54.768 11.256 53.232 10.872 51.44 10.552C49.648 10.232 47.92 10.072 46.256 10.072C40.432 10.072 35.248 11.064 30.704 13.048C26.224 14.968 22.448 17.432 19.376 20.44C16.304 23.448 13.968 26.616 12.368 29.944C10.768 33.272 9.968 36.344 9.968 39.16C9.968 41.336 10.448 43.192 11.408 44.728C12.432 46.2 13.936 47.16 15.92 47.608C16.112 47.672 16.432 47.704 16.88 47.704C18.096 47.704 19.568 47.352 21.296 46.648C23.088 45.944 24.848 44.888 26.576 43.48C28.368 42.008 29.84 40.184 30.992 38.008C32.784 34.68 33.68 31.8 33.68 29.368C33.68 27.896 33.36 26.744 32.72 25.912C32.144 25.08 31.248 24.664 30.032 24.664C28.496 24.664 27.12 25.08 25.904 25.912C24.688 26.744 23.696 27.768 22.928 28.984C22.224 30.136 21.744 31.192 21.488 32.152C21.424 32.344 21.392 32.6 21.392 32.92C21.392 33.816 21.776 34.264 22.544 34.264C22.928 34.264 23.216 34.2 23.408 34.072C23.536 34.008 23.664 33.976 23.792 33.976C24.112 33.976 24.272 34.136 24.272 34.456C24.272 34.712 24.144 34.968 23.888 35.224C23.44 35.544 22.864 35.704 22.16 35.704C21.328 35.704 20.624 35.448 20.048 34.936C19.536 34.36 19.28 33.656 19.28 32.824C19.28 32.568 19.28 32.344 19.28 32.152C19.344 31.96 19.408 31.736 19.472 31.48C20.112 29.368 21.456 27.512 23.504 25.912C25.616 24.312 27.952 23.512 30.512 23.512C32.56 23.512 34.064 24.152 35.024 25.432C36.048 26.712 36.56 28.312 36.56 30.232C36.56 32.152 36.08 34.264 35.12 36.568C34.16 38.808 32.752 40.952 30.896 43C29.04 45.048 26.8 46.712 24.176 47.992C21.552 49.272 18.576 49.912 15.248 49.912C12.176 49.912 9.712 48.984 7.856 47.128C6.064 45.272 5.168 42.808 5.168 39.736C5.168 38.008 5.456 36.152 6.032 34.168C6.672 32.12 7.664 30.008 9.008 27.832C10.992 24.568 13.424 21.752 16.304 19.384C19.248 17.016 22.416 15.064 25.808 13.528C29.2 11.992 32.624 10.872 36.08 10.168C39.6 9.4 42.896 9.016 45.968 9.016C48.016 9.016 50.032 9.112 52.016 9.304C54.064 9.496 55.984 9.88 57.776 10.456C59.76 8.984 61.744 8.024 63.728 7.576C65.712 7.064 67.44 6.808 68.912 6.808C69.296 6.808 69.68 6.808 70.064 6.808C70.448 6.808 70.768 6.84 71.024 6.904C71.536 6.968 71.888 7.128 72.08 7.384C72.336 7.576 72.464 7.768 72.464 7.96C72.464 8.344 72.144 8.536 71.504 8.536C71.184 8.472 70.864 8.44 70.544 8.44C70.224 8.44 69.904 8.44 69.584 8.44C69.328 8.44 69.04 8.44 68.72 8.44C68.4 8.44 68.048 8.504 67.664 8.632C66.96 8.76 66.128 9.048 65.168 9.496C64.272 9.944 63.248 10.648 62.096 11.608C64.464 12.888 66.512 14.616 68.24 16.792C69.968 18.904 70.832 21.4 70.832 24.28C70.832 25.432 70.704 26.52 70.448 27.544C69.872 30.04 68.688 32.152 66.896 33.88C65.168 35.544 63.12 36.888 60.752 37.912C58.448 38.936 56.144 39.704 53.84 40.216C51.6 40.728 49.648 41.048 47.984 41.176C49.84 42.136 51.312 43.672 52.4 45.784C53.488 47.832 54.288 50.04 54.8 52.408C55.312 54.776 55.6 56.824 55.664 58.552C55.728 59.192 55.792 59.832 55.856 60.472C55.92 61.048 56.016 61.592 56.144 62.104C56.592 64.152 57.552 65.176 59.024 65.176C59.728 65.176 60.496 64.984 61.328 64.6C62.224 64.152 63.12 63.64 64.016 63.064C66.64 61.4 69.232 59.128 71.792 56.248C74.352 53.304 76.56 50.2 78.416 46.936C78.672 46.68 78.928 46.552 79.184 46.552C79.504 46.552 79.728 46.712 79.856 47.032C80.048 47.352 80.048 47.672 79.856 47.992ZM63.536 28.312C64.176 26.328 64.496 24.408 64.496 22.552C64.496 20.504 64.08 18.744 63.248 17.272C62.48 15.8 61.392 14.552 59.984 13.528C58.064 15.512 55.856 18.296 53.36 21.88C50.928 25.464 48.176 30.264 45.104 36.28C44.848 36.792 44.56 37.368 44.24 38.008C43.984 38.584 43.696 39.16 43.376 39.736C45.04 39.672 46.864 39.448 48.848 39.064C50.896 38.68 52.912 38.072 54.896 37.24C56.88 36.344 58.64 35.192 60.176 33.784C61.776 32.312 62.896 30.488 63.536 28.312ZM84.1138 67.768C81.8738 67.896 80.0498 67.512 78.6418 66.616C77.2978 65.656 76.3058 64.408 75.6658 62.872C75.0898 61.272 74.8018 59.608 74.8018 57.88C74.8018 56.92 74.8978 55.96 75.0898 55C75.2818 54.04 75.5058 53.144 75.7617 52.312C76.4658 50.264 77.4258 48.376 78.6418 46.648C79.8578 44.92 81.1698 43.448 82.5778 42.232C83.9218 41.08 85.3938 40.184 86.9938 39.544C88.6578 38.84 90.1938 38.488 91.6018 38.488C93.0098 38.488 94.1938 38.872 95.1538 39.64C96.1138 40.344 96.5938 41.528 96.5938 43.192C96.5938 44.088 96.4018 45.208 96.0178 46.552C95.3138 48.792 93.8098 50.776 91.5058 52.504C89.2658 54.232 86.8338 55.096 84.2098 55.096C83.4418 55.096 82.6098 55 81.7138 54.808C81.2658 56.408 81.0418 58.04 81.0418 59.704C81.0418 61.432 81.3938 62.872 82.0978 64.024C82.8658 65.112 84.0818 65.656 85.7458 65.656C87.6658 65.656 89.7778 65.016 92.0818 63.736C94.3858 62.392 96.6898 60.6 98.9938 58.36C101.362 56.12 103.506 53.56 105.426 50.68C105.682 50.232 105.97 50.008 106.29 50.008C106.61 50.008 106.77 50.264 106.77 50.776C106.77 51.288 106.61 51.736 106.29 52.12C104.562 54.488 102.578 56.856 100.338 59.224C98.0978 61.528 95.6338 63.48 92.9458 65.08C90.2578 66.68 87.3138 67.576 84.1138 67.768ZM83.5378 53.464C84.6258 53.464 85.8098 53.048 87.0898 52.216C88.3698 51.384 89.5538 50.392 90.6418 49.24C91.7938 48.088 92.5938 47.032 93.0418 46.072C93.7458 44.664 94.0978 43.48 94.0978 42.52C94.0978 41.624 93.8418 41.016 93.3298 40.696C92.8818 40.376 92.5298 40.216 92.2738 40.216C91.6338 40.216 90.7378 40.568 89.5858 41.272C88.4978 41.976 87.4098 43.096 86.3218 44.632C85.2978 45.976 84.4018 47.416 83.6338 48.952C82.8658 50.488 82.3858 51.896 82.1938 53.176C82.5778 53.368 83.0258 53.464 83.5378 53.464ZM111.931 67.576C110.139 67.576 108.667 66.968 107.515 65.752C106.363 64.536 105.787 62.84 105.787 60.664C105.787 58.808 106.299 56.76 107.323 54.52C107.771 53.56 108.187 52.376 108.571 50.968C108.955 49.56 109.339 48.344 109.723 47.32C108.891 48.536 108.027 49.752 107.131 50.968C106.299 52.184 105.371 53.368 104.347 54.52C103.771 55.16 103.259 55.48 102.811 55.48C102.555 55.48 102.427 55.352 102.427 55.096C102.427 54.84 102.587 54.52 102.907 54.136C105.147 51.256 107.003 48.6 108.475 46.168C109.947 43.736 111.067 41.912 111.835 40.696C112.347 39.8 113.179 39.256 114.331 39.064C115.483 38.872 116.475 38.808 117.307 38.872C117.563 38.872 117.851 38.904 118.171 38.968C118.491 38.968 118.971 38.968 119.611 38.968C119.227 39.608 118.555 40.888 117.595 42.808C116.635 44.728 115.611 46.936 114.523 49.432C113.435 51.864 112.507 54.264 111.739 56.632C110.971 59 110.587 61.016 110.587 62.68C110.587 63.512 110.747 64.216 111.067 64.792C111.387 65.368 111.963 65.656 112.795 65.656C114.011 65.656 115.323 65.048 116.731 63.832C118.139 62.616 119.483 61.08 120.763 59.224C122.107 57.304 123.163 55.416 123.931 53.56C123.867 53.432 123.803 53.048 123.739 52.408C123.675 51.704 123.643 50.744 123.643 49.528C123.643 48.632 123.675 47.64 123.739 46.552C123.803 45.464 123.931 44.216 124.123 42.808C124.571 39.992 125.467 37.88 126.811 36.472C128.155 35 129.179 34.264 129.883 34.264C130.651 34.264 131.195 34.552 131.515 35.128C131.835 35.704 131.995 36.44 131.995 37.336C131.995 38.104 131.867 38.968 131.611 39.928C131.419 40.888 131.163 41.912 130.843 43C130.139 45.048 129.307 47.064 128.347 49.048C127.451 50.968 126.843 52.28 126.523 52.984C126.523 54.392 126.747 55.576 127.195 56.536C127.707 57.496 128.507 57.976 129.595 57.976C130.875 57.976 132.091 57.56 133.243 56.728C134.395 55.832 135.419 54.808 136.315 53.656C137.275 52.44 138.043 51.352 138.619 50.392C139.067 49.752 139.483 49.432 139.867 49.432C140.123 49.432 140.251 49.624 140.251 50.008C140.251 50.456 140.091 50.872 139.771 51.256C139.323 51.96 138.715 52.824 137.947 53.848C137.243 54.872 136.475 55.864 135.643 56.824C134.875 57.72 134.171 58.392 133.531 58.84C131.995 59.8 130.619 60.28 129.403 60.28C128.251 60.28 127.259 59.96 126.427 59.32C125.659 58.616 125.083 57.752 124.699 56.728C122.715 60.568 120.571 63.352 118.267 65.08C115.963 66.744 113.851 67.576 111.931 67.576ZM144.163 67.576C142.179 67.576 140.771 67 139.939 65.848C139.171 64.632 138.787 63.16 138.787 61.432C138.787 59.768 139.011 58.04 139.459 56.248C139.971 54.392 140.547 52.664 141.187 51.064C141.827 49.464 142.339 48.216 142.723 47.32C141.891 48.536 141.027 49.752 140.131 50.968C139.299 52.184 138.371 53.368 137.347 54.52C136.771 55.16 136.227 55.48 135.715 55.48C135.459 55.48 135.331 55.352 135.331 55.096C135.331 54.84 135.491 54.52 135.811 54.136C138.051 51.256 139.907 48.6 141.379 46.168C142.915 43.736 144.067 41.912 144.835 40.696C145.347 39.8 146.179 39.256 147.331 39.064C148.483 38.872 149.475 38.808 150.307 38.872C150.563 38.872 150.851 38.904 151.171 38.968C151.491 38.968 151.971 38.968 152.611 38.968C151.267 41.272 150.083 43.768 149.059 46.456C148.035 49.144 146.947 51.704 145.795 54.136C144.835 56.12 144.131 57.848 143.683 59.32C143.235 60.792 143.011 62.008 143.011 62.968C143.011 64.696 143.619 65.56 144.835 65.56C145.795 65.56 147.011 64.792 148.483 63.256C149.955 61.656 151.459 59.672 152.995 57.304C154.531 54.936 155.811 52.536 156.835 50.104C157.603 48.44 158.339 46.744 159.043 45.016C159.811 43.288 160.419 41.848 160.867 40.696C161.123 40.248 161.731 39.928 162.691 39.736C163.715 39.48 164.835 39.32 166.051 39.256C167.331 39.192 168.483 39.16 169.507 39.16C168.675 39.928 167.715 41.24 166.627 43.096C165.603 44.888 164.579 46.936 163.555 49.24C162.595 51.544 161.795 53.816 161.155 56.056C160.515 58.296 160.195 60.216 160.195 61.816C160.195 62.072 160.195 62.328 160.195 62.584C160.259 62.84 160.323 63.096 160.387 63.352C160.707 64.504 161.475 65.08 162.691 65.08C163.011 65.08 163.331 65.048 163.651 64.984C164.035 64.92 164.451 64.792 164.899 64.6C166.691 63.832 168.547 62.68 170.467 61.144C172.387 59.608 174.211 57.88 175.939 55.96C177.667 54.04 179.107 52.216 180.259 50.488C180.835 49.656 181.315 49.24 181.699 49.24C181.891 49.24 181.987 49.368 181.987 49.624C181.987 50.136 181.731 50.776 181.219 51.544C180.067 53.272 178.627 55.16 176.899 57.208C175.235 59.256 173.411 61.144 171.427 62.872C169.507 64.6 167.587 65.88 165.667 66.712C164.259 67.288 162.947 67.576 161.731 67.576C159.299 67.576 157.443 66.616 156.163 64.696C154.947 62.712 154.467 60.6 154.723 58.36C153.251 60.856 151.619 63.032 149.827 64.888C148.099 66.68 146.211 67.576 144.163 67.576ZM187.614 67.768C185.374 67.896 183.55 67.512 182.142 66.616C180.798 65.656 179.806 64.408 179.166 62.872C178.59 61.272 178.302 59.608 178.302 57.88C178.302 56.92 178.398 55.96 178.59 55C178.782 54.04 179.006 53.144 179.262 52.312C179.966 50.264 180.926 48.376 182.142 46.648C183.358 44.92 184.67 43.448 186.078 42.232C187.422 41.08 188.894 40.184 190.494 39.544C192.158 38.84 193.694 38.488 195.102 38.488C196.51 38.488 197.694 38.872 198.654 39.64C199.614 40.344 200.094 41.528 200.094 43.192C200.094 44.088 199.902 45.208 199.518 46.552C198.814 48.792 197.31 50.776 195.006 52.504C192.766 54.232 190.334 55.096 187.71 55.096C186.942 55.096 186.11 55 185.214 54.808C184.766 56.408 184.542 58.04 184.542 59.704C184.542 61.432 184.894 62.872 185.598 64.024C186.366 65.112 187.582 65.656 189.246 65.656C191.166 65.656 193.278 65.016 195.582 63.736C197.886 62.392 200.19 60.6 202.494 58.36C204.862 56.12 207.006 53.56 208.926 50.68C209.182 50.232 209.47 50.008 209.79 50.008C210.11 50.008 210.27 50.264 210.27 50.776C210.27 51.288 210.11 51.736 209.79 52.12C208.062 54.488 206.078 56.856 203.838 59.224C201.598 61.528 199.134 63.48 196.446 65.08C193.758 66.68 190.814 67.576 187.614 67.768ZM187.038 53.464C188.126 53.464 189.31 53.048 190.59 52.216C191.87 51.384 193.054 50.392 194.142 49.24C195.294 48.088 196.094 47.032 196.542 46.072C197.246 44.664 197.598 43.48 197.598 42.52C197.598 41.624 197.342 41.016 196.83 40.696C196.382 40.376 196.03 40.216 195.774 40.216C195.134 40.216 194.238 40.568 193.086 41.272C191.998 41.976 190.91 43.096 189.822 44.632C188.798 45.976 187.902 47.416 187.134 48.952C186.366 50.488 185.886 51.896 185.694 53.176C186.078 53.368 186.526 53.464 187.038 53.464ZM251.279 72.088C246.863 72.088 243.247 71.192 240.431 69.4C237.679 67.608 235.631 65.24 234.287 62.296C233.007 59.288 232.367 56.056 232.367 52.6C232.367 47.928 233.423 43.288 235.535 38.68C236.879 35.864 238.575 33.08 240.623 30.328C236.527 28.216 233.487 25.56 231.503 22.36C229.519 19.16 228.527 15.992 228.527 12.856C228.527 9.784 229.391 7.192 231.119 5.08C232.015 3.99199 233.295 3.032 234.959 2.2C236.687 1.368 238.575 0.951998 240.623 0.951998C242.991 0.951998 245.391 1.688 247.823 3.16C250.319 4.568 252.495 7.096 254.351 10.744L254.447 11.128C254.447 11.768 254.255 12.088 253.871 12.088C253.615 12.088 253.391 11.832 253.199 11.32C251.535 8.184 249.551 5.944 247.247 4.6C245.007 3.192 242.799 2.488 240.623 2.488C237.295 2.488 234.799 3.736 233.135 6.232C232.367 7.448 231.983 8.92 231.983 10.648C231.983 12.504 232.399 14.52 233.231 16.696C234.127 18.808 235.375 20.856 236.975 22.84C238.575 24.76 240.463 26.424 242.639 27.832C245.519 24.376 248.879 21.144 252.719 18.136C256.623 15.128 260.815 12.696 265.295 10.84C269.775 8.92 274.319 7.96 278.927 7.96C282.383 7.96 284.751 8.6 286.031 9.88C287.311 11.096 287.951 12.536 287.951 14.2C287.951 15.48 287.695 16.824 287.183 18.232C286.799 19.384 285.967 20.824 284.687 22.552C283.407 24.28 281.615 26.008 279.311 27.736C277.071 29.464 274.191 30.936 270.671 32.152C267.215 33.304 263.087 33.88 258.287 33.88C256.303 33.88 254.415 33.752 252.623 33.496C250.831 33.24 249.167 32.888 247.631 32.44C246.799 33.656 245.999 34.84 245.231 35.992C244.463 37.144 243.791 38.328 243.215 39.544C242.191 41.72 241.231 44.44 240.335 47.704C239.439 50.904 238.991 54.04 238.991 57.112C238.991 59.48 239.343 61.688 240.047 63.736C240.815 65.72 242.095 67.32 243.887 68.536C245.679 69.752 248.111 70.36 251.183 70.36C254.255 70.36 257.103 69.656 259.727 68.248C262.415 66.84 264.751 65.048 266.735 62.872C268.783 60.632 270.351 58.328 271.439 55.96C272.399 53.848 272.879 51.864 272.879 50.008C272.879 48.216 272.463 46.776 271.631 45.688C270.799 44.6 269.679 44.056 268.271 44.056C267.311 44.056 266.255 44.376 265.103 45.016C264.015 45.656 263.087 46.456 262.319 47.416C261.615 48.312 261.327 49.208 261.455 50.104C261.455 50.552 261.327 50.904 261.071 51.16C260.879 51.416 260.655 51.544 260.399 51.544C259.951 51.544 259.727 51.256 259.727 50.68C259.535 49.528 259.791 48.344 260.495 47.128C261.199 45.848 262.255 44.76 263.663 43.864C265.135 42.968 266.831 42.52 268.751 42.52C270.991 42.52 272.879 43.224 274.415 44.632C276.015 45.976 276.815 47.864 276.815 50.296C276.815 51.192 276.687 52.184 276.431 53.272C276.175 54.296 275.759 55.384 275.183 56.536C274.351 58.264 273.103 60.024 271.439 61.816C269.839 63.608 267.951 65.304 265.775 66.904C263.599 68.44 261.263 69.688 258.767 70.648C256.271 71.608 253.775 72.088 251.279 72.088ZM258.383 32.152C262.927 32.152 266.735 31.608 269.807 30.52C272.943 29.432 275.503 28.12 277.487 26.584C279.535 24.984 281.103 23.384 282.191 21.784C283.279 20.12 284.015 18.776 284.399 17.752C284.591 17.24 284.751 16.696 284.879 16.12C285.007 15.544 285.071 15 285.071 14.488C285.071 13.208 284.623 12.088 283.727 11.128C282.895 10.104 281.423 9.592 279.311 9.592C276.559 9.592 273.423 10.552 269.903 12.472C266.383 14.392 262.831 16.92 259.247 20.056C255.663 23.128 252.335 26.52 249.263 30.232C250.607 30.68 252.047 31.128 253.583 31.576C255.119 31.96 256.719 32.152 258.383 32.152ZM289.143 68.248C286.007 68.248 283.735 67.128 282.327 64.888C280.919 62.584 280.215 59.928 280.215 56.92C280.215 54.104 280.727 51.288 281.751 48.472C282.839 45.592 284.311 43.192 286.167 41.272C288.087 39.352 290.327 38.392 292.887 38.392C293.015 38.392 293.303 38.424 293.751 38.488C294.199 38.488 294.487 38.52 294.615 38.584C296.535 36.664 298.519 35.704 300.567 35.704C302.423 35.704 303.991 36.536 305.271 38.2C306.615 39.8 307.287 42.072 307.287 45.016C307.287 47.064 306.967 49.24 306.327 51.544C305.687 53.848 304.855 56.024 303.831 58.072C302.871 60.056 301.815 61.688 300.663 62.968C300.919 63.032 301.143 63.064 301.335 63.064C301.527 63.064 301.751 63.064 302.007 63.064C304.247 63.064 306.455 62.488 308.631 61.336C310.807 60.184 312.855 58.68 314.775 56.824C316.759 54.904 318.487 52.824 319.959 50.584C320.279 50.2 320.503 50.008 320.631 50.008C320.951 50.008 321.111 50.232 321.111 50.68C321.111 51.128 320.983 51.512 320.727 51.832C320.087 52.984 319.095 54.328 317.751 55.864C316.407 57.336 314.839 58.808 313.047 60.28C311.319 61.752 309.463 62.968 307.479 63.928C305.495 64.888 303.511 65.368 301.527 65.368C301.079 65.368 300.599 65.336 300.087 65.272C299.639 65.144 299.191 65.048 298.743 64.984C297.719 65.944 296.247 66.712 294.327 67.288C292.407 67.928 290.679 68.248 289.143 68.248ZM297.975 62.104C299.831 60.056 301.271 57.432 302.295 54.232C303.319 51.032 303.831 47.96 303.831 45.016C303.831 44.632 303.831 44.248 303.831 43.864C303.831 43.48 303.799 43.128 303.735 42.808C303.543 41.144 303.159 39.96 302.583 39.256C302.007 38.488 301.335 38.104 300.567 38.104C299.415 38.104 298.199 38.808 296.919 40.216C295.703 41.56 294.839 43.192 294.327 45.112C293.815 46.968 293.559 48.92 293.559 50.968C293.559 53.336 293.911 55.576 294.615 57.688C295.319 59.736 296.439 61.208 297.975 62.104ZM291.063 65.752C292.919 65.752 294.647 65.112 296.247 63.832C294.455 62.552 293.143 60.792 292.311 58.552C291.479 56.312 291.063 53.944 291.063 51.448C291.063 49.656 291.255 47.896 291.639 46.168C292.087 44.376 292.695 42.776 293.463 41.368C292.247 41.624 291.063 42.68 289.911 44.536C288.759 46.392 287.799 48.568 287.031 51.064C286.327 53.56 285.975 55.96 285.975 58.264C285.975 60.376 286.359 62.168 287.127 63.64C287.895 65.048 289.207 65.752 291.063 65.752ZM314.913 68.536C316.513 65.016 318.113 61.4 319.713 57.688C321.313 53.976 322.785 50.52 324.129 47.32C323.297 48.536 322.433 49.752 321.537 50.968C320.705 52.184 319.777 53.368 318.753 54.52C318.177 55.16 317.665 55.48 317.217 55.48C316.961 55.48 316.833 55.352 316.833 55.096C316.833 54.904 316.993 54.616 317.313 54.232C319.553 51.352 321.409 48.696 322.881 46.264C324.353 43.768 325.473 41.912 326.241 40.696C326.753 39.8 327.393 39.32 328.161 39.256C328.993 39.128 329.697 39.064 330.273 39.064C330.529 39.064 330.977 39.096 331.617 39.16C332.257 39.16 332.897 39.16 333.537 39.16C333.281 39.672 332.769 40.568 332.001 41.848C331.297 43.128 330.529 44.472 329.697 45.88C328.929 47.288 328.289 48.568 327.777 49.72C328.673 48.632 329.921 47.096 331.521 45.112C333.185 43.064 335.105 41.368 337.281 40.024C339.329 38.808 341.185 38.2 342.849 38.2C345.601 38.2 346.977 39.64 346.977 42.52C346.977 43.288 346.849 44.152 346.593 45.112C346.337 46.072 345.921 47.096 345.345 48.184C344.129 50.552 342.817 53.048 341.409 55.672C340.065 58.232 339.073 60.632 338.433 62.872C338.369 63.128 338.305 63.352 338.241 63.544C338.241 63.736 338.241 63.928 338.241 64.12C338.241 65.272 338.817 65.848 339.969 65.848C340.609 65.848 341.345 65.656 342.177 65.272C343.969 64.504 345.889 63.288 347.937 61.624C349.985 59.96 351.905 58.136 353.697 56.152C355.553 54.168 357.025 52.344 358.113 50.68C358.497 50.04 358.881 49.72 359.265 49.72C359.585 49.72 359.745 49.88 359.745 50.2C359.745 50.584 359.617 50.936 359.361 51.256C358.209 52.984 356.705 54.936 354.849 57.112C353.057 59.224 351.105 61.208 348.993 63.064C346.945 64.856 344.961 66.168 343.041 67C341.697 67.512 340.417 67.768 339.201 67.768C337.537 67.768 336.065 67.352 334.785 66.52C333.569 65.624 332.961 64.312 332.961 62.584C332.961 62.328 332.961 62.072 332.961 61.816C333.025 61.496 333.089 61.208 333.153 60.952C333.665 58.584 334.689 56.152 336.225 53.656C337.761 51.096 339.169 48.632 340.449 46.264C341.153 44.856 341.505 43.768 341.505 43C341.505 41.976 340.993 41.464 339.969 41.464C339.521 41.464 339.009 41.56 338.433 41.752C337.857 41.944 337.249 42.296 336.609 42.808C335.265 43.704 333.857 45.08 332.385 46.936C330.913 48.728 329.409 50.936 327.873 53.56C326.465 56.056 325.153 58.552 323.937 61.048C322.721 63.544 321.729 65.624 320.961 67.288C320.001 67.288 318.881 67.448 317.601 67.768C316.385 68.088 315.489 68.344 314.913 68.536ZM350.667 98.008C348.491 98.008 346.667 97.528 345.195 96.568C343.723 95.608 342.987 94.264 342.987 92.536C342.987 90.68 344.011 88.536 346.059 86.104C347.403 84.568 349.131 83.128 351.243 81.784C353.291 80.504 355.499 79.256 357.867 78.04C360.235 76.888 362.571 75.768 364.875 74.68C367.179 73.592 369.227 72.504 371.019 71.416C371.339 70.2 371.851 68.632 372.555 66.712C373.259 64.792 373.803 63.128 374.187 61.72C373.035 63.192 371.627 64.6 369.963 65.944C368.299 67.288 366.443 67.96 364.395 67.96C361.259 67.96 359.115 67.096 357.963 65.368C356.811 63.64 356.235 61.592 356.235 59.224C356.235 57.752 356.427 56.248 356.811 54.712C357.195 53.112 357.611 51.704 358.059 50.488C358.763 48.824 359.755 47.128 361.035 45.4C362.379 43.608 363.979 42.104 365.835 40.888C367.755 39.672 369.899 39.064 372.267 39.064C374.891 39.064 376.715 39.544 377.739 40.504C378.827 41.4 379.499 42.136 379.755 42.712C379.883 43.096 379.947 43.352 379.947 43.48C379.947 44.12 379.595 44.44 378.891 44.44C378.379 44.44 377.963 44.248 377.643 43.864C376.811 42.904 376.011 42.232 375.243 41.848C374.475 41.4 373.739 41.176 373.035 41.176C371.755 41.176 370.571 41.784 369.483 43C368.395 44.152 367.435 45.56 366.603 47.224C365.771 48.824 365.003 50.328 364.299 51.736C363.915 52.568 363.435 53.912 362.859 55.768C362.347 57.624 362.091 59.416 362.091 61.144C362.091 62.36 362.315 63.416 362.763 64.312C363.275 65.208 364.139 65.656 365.355 65.656C366.891 65.656 368.331 65.08 369.675 63.928C371.019 62.776 372.203 61.4 373.227 59.8C374.251 58.2 375.051 56.76 375.627 55.48C377.227 51.96 378.475 49.176 379.371 47.128C380.267 45.016 381.131 43.288 381.963 41.944C382.795 40.536 383.851 39.128 385.131 37.72C385.835 36.952 386.507 36.408 387.147 36.088C387.851 35.768 388.491 35.608 389.067 35.608C389.963 35.608 390.667 35.896 391.179 36.472C391.755 36.984 392.043 37.592 392.043 38.296C392.043 39.256 391.499 40.024 390.411 40.6C389.259 41.176 388.235 41.688 387.339 42.136C386.443 42.584 385.675 43.128 385.035 43.768C382.987 45.816 381.515 48.312 380.619 51.256C379.787 54.136 379.179 57.144 378.795 60.28C378.475 63.416 378.027 66.36 377.451 69.112C379.947 67.448 382.187 65.784 384.171 64.12C386.219 62.456 388.171 60.6 390.027 58.552C391.947 56.504 393.931 54.04 395.979 51.16C396.299 50.648 396.715 50.392 397.227 50.392C397.483 50.392 397.611 50.552 397.611 50.872C397.611 51.256 397.451 51.64 397.131 52.024C395.147 54.776 393.227 57.272 391.371 59.512C389.515 61.752 387.467 63.864 385.227 65.848C382.987 67.832 380.267 69.88 377.067 71.992C375.979 76.92 374.251 81.016 371.883 84.28C369.579 87.544 367.115 90.136 364.491 92.056C361.931 94.04 359.659 95.48 357.675 96.376C355.179 97.464 352.843 98.008 350.667 98.008ZM348.267 95.896C350.251 95.896 352.395 95.192 354.699 93.784C357.899 91.864 360.779 89.304 363.339 86.104C365.963 82.904 368.235 78.872 370.155 74.008C368.555 74.84 366.635 75.736 364.395 76.696C362.155 77.656 360.171 78.68 358.443 79.768C356.459 80.92 354.603 82.136 352.875 83.416C351.147 84.696 349.707 86.072 348.555 87.544C346.443 90.232 345.387 92.28 345.387 93.688C345.387 95.16 346.347 95.896 348.267 95.896ZM403.893 68.248C400.757 68.248 398.485 67.128 397.077 64.888C395.669 62.584 394.965 59.928 394.965 56.92C394.965 54.104 395.477 51.288 396.501 48.472C397.589 45.592 399.061 43.192 400.917 41.272C402.837 39.352 405.077 38.392 407.637 38.392C407.765 38.392 408.053 38.424 408.501 38.488C408.949 38.488 409.237 38.52 409.365 38.584C411.285 36.664 413.269 35.704 415.317 35.704C417.173 35.704 418.741 36.536 420.021 38.2C421.365 39.8 422.037 42.072 422.037 45.016C422.037 47.064 421.717 49.24 421.077 51.544C420.437 53.848 419.605 56.024 418.581 58.072C417.621 60.056 416.565 61.688 415.413 62.968C415.669 63.032 415.893 63.064 416.085 63.064C416.277 63.064 416.501 63.064 416.757 63.064C418.997 63.064 421.205 62.488 423.381 61.336C425.557 60.184 427.605 58.68 429.525 56.824C431.509 54.904 433.237 52.824 434.709 50.584C435.029 50.2 435.253 50.008 435.381 50.008C435.701 50.008 435.861 50.232 435.861 50.68C435.861 51.128 435.733 51.512 435.477 51.832C434.837 52.984 433.845 54.328 432.501 55.864C431.157 57.336 429.589 58.808 427.797 60.28C426.069 61.752 424.213 62.968 422.229 63.928C420.245 64.888 418.261 65.368 416.277 65.368C415.829 65.368 415.349 65.336 414.837 65.272C414.389 65.144 413.941 65.048 413.493 64.984C412.469 65.944 410.997 66.712 409.077 67.288C407.157 67.928 405.429 68.248 403.893 68.248ZM412.725 62.104C414.581 60.056 416.021 57.432 417.045 54.232C418.069 51.032 418.581 47.96 418.581 45.016C418.581 44.632 418.581 44.248 418.581 43.864C418.581 43.48 418.549 43.128 418.485 42.808C418.293 41.144 417.909 39.96 417.333 39.256C416.757 38.488 416.085 38.104 415.317 38.104C414.165 38.104 412.949 38.808 411.669 40.216C410.453 41.56 409.589 43.192 409.077 45.112C408.565 46.968 408.309 48.92 408.309 50.968C408.309 53.336 408.661 55.576 409.365 57.688C410.069 59.736 411.189 61.208 412.725 62.104ZM405.813 65.752C407.669 65.752 409.397 65.112 410.997 63.832C409.205 62.552 407.893 60.792 407.061 58.552C406.229 56.312 405.813 53.944 405.813 51.448C405.813 49.656 406.005 47.896 406.389 46.168C406.837 44.376 407.445 42.776 408.213 41.368C406.997 41.624 405.813 42.68 404.661 44.536C403.509 46.392 402.549 48.568 401.781 51.064C401.077 53.56 400.725 55.96 400.725 58.264C400.725 60.376 401.109 62.168 401.877 63.64C402.645 65.048 403.957 65.752 405.813 65.752ZM439.743 68.632C437.759 68.632 436.031 68.056 434.559 66.904C433.087 65.752 432.351 63.896 432.351 61.336C432.351 59.608 432.735 57.336 433.503 54.52C434.271 51.704 435.551 48.184 437.343 43.96C439.263 39.288 441.439 34.648 443.871 30.04C446.303 25.368 449.023 21.112 452.031 17.272C453.247 15.736 454.623 14.584 456.159 13.816C457.695 12.984 459.103 12.568 460.383 12.568C461.599 12.568 462.591 12.888 463.359 13.528C464.127 14.168 464.511 15.16 464.511 16.504C464.511 17.208 464.351 18.072 464.031 19.096C463.711 20.056 463.199 21.176 462.495 22.456C460.959 25.208 458.559 28.568 455.295 32.536C452.095 36.44 447.551 40.952 441.663 46.072C440.639 48.696 439.615 51.16 438.591 53.464C437.631 55.704 437.023 57.688 436.767 59.416C436.703 59.736 436.639 60.056 436.575 60.376C436.575 60.696 436.575 61.016 436.575 61.336C436.575 63.128 436.991 64.408 437.823 65.176C438.719 65.88 439.775 66.232 440.991 66.232C442.079 66.232 443.231 65.976 444.447 65.464C445.727 64.952 446.847 64.344 447.807 63.64C449.855 62.104 451.871 60.184 453.855 57.88C455.903 55.512 457.759 53.112 459.423 50.68C459.615 50.36 459.839 50.2 460.095 50.2C460.479 50.2 460.671 50.456 460.671 50.968C460.671 51.224 460.575 51.512 460.383 51.832C458.591 54.584 456.607 57.176 454.431 59.608C452.319 62.04 450.143 64.12 447.903 65.848C446.751 66.744 445.439 67.416 443.967 67.864C442.559 68.376 441.151 68.632 439.743 68.632ZM443.391 41.848C447.103 38.648 450.239 35.544 452.799 32.536C455.359 29.464 457.471 26.552 459.135 23.8C460.223 22.072 460.959 20.632 461.343 19.48C461.791 18.328 462.015 17.464 462.015 16.888C462.015 16.184 461.759 15.832 461.247 15.832C460.031 15.832 458.335 17.304 456.159 20.248C453.599 23.832 451.295 27.352 449.247 30.808C447.263 34.2 445.311 37.88 443.391 41.848ZM480.909 67.576C479.117 67.576 477.837 66.872 477.069 65.464C476.301 64.056 475.917 62.424 475.917 60.568C475.917 60.248 475.917 59.896 475.917 59.512C475.917 59.128 475.949 58.776 476.013 58.456C474.797 60.632 473.229 62.68 471.309 64.6C469.389 66.52 467.021 67.48 464.205 67.48C462.285 67.48 460.653 66.776 459.309 65.368C458.029 63.96 457.389 61.816 457.389 58.936C457.389 56.632 458.029 53.752 459.309 50.296C460.013 48.632 461.037 46.936 462.381 45.208C463.725 43.48 465.357 42.04 467.277 40.888C469.197 39.672 471.341 39.064 473.709 39.064C476.269 39.064 478.061 39.544 479.085 40.504C480.109 41.464 480.749 42.2 481.005 42.712C481.005 42.776 481.005 42.84 481.005 42.904C481.069 42.904 481.101 42.936 481.101 43C481.101 43.576 480.749 43.864 480.045 43.864C479.725 43.864 479.405 43.704 479.085 43.384C478.317 42.488 477.549 41.848 476.781 41.464C476.013 41.08 475.277 40.888 474.573 40.888C473.101 40.888 471.725 41.528 470.445 42.808C469.165 44.024 468.013 45.496 466.989 47.224C466.029 48.888 465.229 50.456 464.589 51.928C463.693 53.976 463.021 55.832 462.573 57.496C462.189 59.096 461.997 60.44 461.997 61.528C461.997 64.408 462.989 65.848 464.973 65.848C466.381 65.848 468.045 64.952 469.965 63.16C471.885 61.368 473.709 58.712 475.437 55.192C476.973 52.12 478.349 49.4 479.565 47.032C480.781 44.6 481.837 42.488 482.733 40.696C482.925 40.248 483.405 39.928 484.173 39.736C484.941 39.48 485.709 39.352 486.477 39.352C487.181 39.352 487.821 39.48 488.397 39.736C488.973 39.928 489.261 40.28 489.261 40.792C489.261 41.048 489.101 41.4 488.781 41.848C488.013 42.936 487.021 44.536 485.805 46.648C484.653 48.76 483.565 50.968 482.541 53.272C481.581 55.576 480.941 57.624 480.621 59.416C480.429 60.376 480.333 61.24 480.333 62.008C480.333 64.056 481.037 65.08 482.445 65.08C482.893 65.08 483.597 64.92 484.557 64.6C486.349 63.832 488.173 62.648 490.029 61.048C491.949 59.384 493.741 57.56 495.405 55.576C497.133 53.592 498.573 51.736 499.725 50.008C500.301 49.176 500.749 48.76 501.069 48.76C501.261 48.76 501.357 48.92 501.357 49.24C501.357 49.752 501.101 50.392 500.589 51.16C499.437 52.888 497.965 54.808 496.173 56.92C494.445 59.032 492.557 60.984 490.509 62.776C488.525 64.568 486.573 65.88 484.653 66.712C483.245 67.288 481.997 67.576 480.909 67.576ZM511.825 35.896C510.865 35.896 510.129 35.576 509.617 34.936C509.105 34.296 508.849 33.56 508.849 32.728C508.849 31.832 509.169 31.096 509.809 30.52C510.513 29.944 511.249 29.656 512.017 29.656C512.977 29.656 513.745 29.976 514.321 30.616C514.897 31.192 515.185 31.896 515.185 32.728C515.185 33.56 514.833 34.296 514.129 34.936C513.425 35.576 512.657 35.896 511.825 35.896ZM507.217 68.632C505.041 68.632 503.313 67.832 502.033 66.232C500.753 64.568 500.113 62.488 500.113 59.992C500.113 58.2 500.433 56.376 501.073 54.52C501.393 53.496 501.777 52.312 502.225 50.968C502.673 49.56 503.089 48.344 503.473 47.32C502.641 48.536 501.777 49.752 500.881 50.968C500.049 52.184 499.121 53.368 498.097 54.52C497.521 55.16 496.977 55.48 496.465 55.48C496.209 55.48 496.081 55.352 496.081 55.096C496.081 54.84 496.241 54.52 496.561 54.136C498.801 51.256 500.657 48.6 502.129 46.168C503.665 43.736 504.817 41.912 505.585 40.696C506.097 39.8 506.929 39.256 508.081 39.064C509.233 38.872 510.225 38.808 511.057 38.872C511.313 38.872 511.601 38.904 511.921 38.968C512.241 38.968 512.721 38.968 513.361 38.968C512.977 39.736 512.369 41.048 511.537 42.904C510.769 44.696 509.969 46.648 509.137 48.76C508.305 50.808 507.569 52.632 506.929 54.232C506.353 55.64 505.873 57.048 505.489 58.456C505.169 59.864 505.009 61.144 505.009 62.296C505.009 63.512 505.233 64.504 505.681 65.272C506.129 66.04 506.833 66.424 507.793 66.424C509.073 66.424 510.545 65.912 512.209 64.888C513.873 63.864 515.537 62.584 517.201 61.048C518.929 59.512 520.497 57.944 521.905 56.344C523.377 54.68 524.529 53.208 525.361 51.928C525.617 51.544 525.905 51.352 526.225 51.352C526.545 51.352 526.705 51.608 526.705 52.12C526.705 52.504 526.577 52.856 526.321 53.176C522.993 57.72 519.761 61.432 516.625 64.312C513.553 67.192 510.417 68.632 507.217 68.632ZM525.958 69.688C523.206 69.688 521.19 69.144 519.91 68.056C518.63 66.968 517.99 65.816 517.99 64.6C517.99 63.576 518.406 62.712 519.238 62.008C520.006 61.24 521.126 60.92 522.598 61.048C524.774 61.176 526.982 61.496 529.222 62.008C531.462 62.456 533.638 62.616 535.75 62.488C536.326 61.464 536.806 60.312 537.19 59.032C537.574 57.752 537.766 56.504 537.766 55.288C537.766 53.88 537.414 52.472 536.71 51.064C536.07 49.656 535.302 48.376 534.406 47.224C533.574 46.008 532.838 45.048 532.198 44.344C530.918 46.584 529.51 48.76 527.974 50.872C526.502 52.984 524.902 55.032 523.174 57.016C522.534 57.72 521.99 58.072 521.542 58.072C521.286 58.072 521.158 57.944 521.158 57.688C521.158 57.432 521.51 56.888 522.214 56.056C524.07 53.88 525.798 51.544 527.398 49.048C528.998 46.552 530.214 44.6 531.046 43.192C530.598 42.68 530.182 41.848 529.798 40.696C529.414 39.48 529.222 38.264 529.222 37.048C529.222 35.192 529.606 33.432 530.374 31.768C531.142 30.104 532.294 29.272 533.83 29.272C534.726 29.272 535.462 29.528 536.038 30.04C536.614 30.488 536.902 31.416 536.902 32.824C536.902 33.272 536.87 33.752 536.806 34.264C536.742 34.776 536.646 35.352 536.518 35.992C536.262 36.824 535.846 37.816 535.27 38.968C534.694 40.12 534.246 40.952 533.926 41.464C535.27 43.064 536.646 44.504 538.054 45.784C539.462 47 540.646 48.376 541.606 49.912C542.566 51.448 543.046 53.464 543.046 55.96C543.046 56.792 542.918 57.752 542.662 58.84C542.406 59.864 542.086 60.792 541.702 61.624C543.366 61.368 545.254 60.408 547.366 58.744C549.542 57.016 551.654 54.616 553.702 51.544C554.15 50.84 554.63 50.488 555.142 50.488C555.462 50.488 555.622 50.648 555.622 50.968C555.622 51.16 555.526 51.416 555.334 51.736C552.966 55.256 550.534 58.104 548.038 60.28C545.606 62.392 543.078 63.64 540.454 64.024C538.982 66.008 536.934 67.448 534.31 68.344C531.75 69.24 528.966 69.688 525.958 69.688ZM532.87 40.12C533.062 39.608 533.318 39 533.638 38.296C534.022 37.528 534.342 36.632 534.598 35.608C534.79 34.84 534.886 34.136 534.886 33.496C534.886 32.024 534.598 31.288 534.022 31.288C533.702 31.288 533.286 31.64 532.774 32.344C532.262 33.048 532.006 34.104 532.006 35.512C532.006 36.344 532.07 37.208 532.198 38.104C532.39 39 532.614 39.672 532.87 40.12ZM526.246 67.768C527.974 67.768 529.51 67.448 530.854 66.808C532.262 66.104 533.478 65.24 534.502 64.216C532.838 64.216 531.27 64.12 529.798 63.928C528.326 63.736 526.758 63.608 525.094 63.544C524.134 63.48 523.398 63.64 522.886 64.024C522.438 64.344 522.214 64.76 522.214 65.272C522.214 65.848 522.534 66.424 523.174 67C523.878 67.512 524.902 67.768 526.246 67.768ZM561.864 67.768C559.624 67.896 557.8 67.512 556.392 66.616C555.048 65.656 554.056 64.408 553.416 62.872C552.84 61.272 552.552 59.608 552.552 57.88C552.552 56.92 552.648 55.96 552.84 55C553.032 54.04 553.256 53.144 553.512 52.312C554.216 50.264 555.176 48.376 556.392 46.648C557.608 44.92 558.92 43.448 560.328 42.232C561.672 41.08 563.144 40.184 564.744 39.544C566.408 38.84 567.944 38.488 569.352 38.488C570.76 38.488 571.944 38.872 572.904 39.64C573.864 40.344 574.344 41.528 574.344 43.192C574.344 44.088 574.152 45.208 573.768 46.552C573.064 48.792 571.56 50.776 569.256 52.504C567.016 54.232 564.584 55.096 561.96 55.096C561.192 55.096 560.36 55 559.464 54.808C559.016 56.408 558.792 58.04 558.792 59.704C558.792 61.432 559.144 62.872 559.848 64.024C560.616 65.112 561.832 65.656 563.496 65.656C565.416 65.656 567.528 65.016 569.832 63.736C572.136 62.392 574.44 60.6 576.744 58.36C579.112 56.12 581.256 53.56 583.176 50.68C583.432 50.232 583.72 50.008 584.04 50.008C584.36 50.008 584.52 50.264 584.52 50.776C584.52 51.288 584.36 51.736 584.04 52.12C582.312 54.488 580.328 56.856 578.088 59.224C575.848 61.528 573.384 63.48 570.696 65.08C568.008 66.68 565.064 67.576 561.864 67.768ZM561.288 53.464C562.376 53.464 563.56 53.048 564.84 52.216C566.12 51.384 567.304 50.392 568.392 49.24C569.544 48.088 570.344 47.032 570.792 46.072C571.496 44.664 571.848 43.48 571.848 42.52C571.848 41.624 571.592 41.016 571.08 40.696C570.632 40.376 570.28 40.216 570.024 40.216C569.384 40.216 568.488 40.568 567.336 41.272C566.248 41.976 565.16 43.096 564.072 44.632C563.048 45.976 562.152 47.416 561.384 48.952C560.616 50.488 560.136 51.896 559.944 53.176C560.328 53.368 560.776 53.464 561.288 53.464ZM629.561 67.672C627.385 67.672 625.593 66.904 624.185 65.368C622.841 63.768 622.169 61.912 622.169 59.8C622.169 59.48 622.169 59.16 622.169 58.84C622.233 58.52 622.297 58.232 622.361 57.976C621.785 58.936 621.017 60.12 620.057 61.528C619.161 62.936 618.137 64.216 616.985 65.368C615.833 66.52 614.553 67.192 613.145 67.384C612.889 67.448 612.633 67.48 612.377 67.48C612.121 67.48 611.897 67.48 611.705 67.48C609.081 67.48 607.129 66.52 605.849 64.6C604.633 62.616 604.025 60.248 604.025 57.496C604.025 55.384 604.345 53.24 604.985 51.064C605.689 48.824 606.681 46.776 607.961 44.92C609.241 43 610.777 41.464 612.569 40.312C614.361 39.16 616.409 38.584 618.713 38.584C619.481 38.584 620.441 38.744 621.593 39.064C622.745 39.32 623.833 39.64 624.857 40.024C625.881 40.408 626.585 40.792 626.969 41.176C627.481 40.024 628.089 38.296 628.793 35.992C629.497 33.688 630.361 31.352 631.385 28.984C632.025 27.512 632.761 25.88 633.593 24.088C634.489 22.296 635.513 20.568 636.665 18.904C637.817 17.176 639.129 15.768 640.601 14.68C642.073 13.592 643.769 13.048 645.689 13.048C647.097 13.048 648.281 13.432 649.241 14.2C650.201 14.968 650.681 16.152 650.681 17.752C650.681 19.16 650.201 20.888 649.241 22.936C647.833 25.944 645.753 29.592 643.001 33.88C640.249 38.168 636.153 42.872 630.713 47.992C630.457 48.696 630.073 49.784 629.561 51.256C629.049 52.664 628.569 54.232 628.121 55.96C627.737 57.688 627.545 59.288 627.545 60.76C627.545 62.04 627.737 63.064 628.121 63.832C628.569 64.6 629.241 64.984 630.137 64.984C630.457 64.984 630.777 64.952 631.097 64.888C631.417 64.824 631.801 64.696 632.249 64.504C634.041 63.736 635.897 62.616 637.817 61.144C639.801 59.608 641.689 57.848 643.481 55.864C645.337 53.88 646.873 51.896 648.089 49.912C648.345 49.464 648.665 49.24 649.049 49.24C649.369 49.24 649.529 49.464 649.529 49.912C649.529 50.168 649.433 50.488 649.241 50.872C648.153 52.6 646.745 54.552 645.017 56.728C643.289 58.904 641.433 60.92 639.449 62.776C637.529 64.568 635.609 65.88 633.689 66.712C632.345 67.352 630.969 67.672 629.561 67.672ZM632.057 43.864C634.489 41.368 636.697 38.744 638.681 35.992C640.729 33.176 642.521 30.456 644.057 27.832C645.593 25.144 646.777 22.84 647.609 20.92C647.929 20.344 648.121 19.8 648.185 19.288C648.313 18.776 648.377 18.328 648.377 17.944C648.377 16.344 647.737 15.544 646.457 15.544C645.817 15.544 645.049 15.864 644.153 16.504C643.321 17.144 642.521 18.2 641.753 19.672C639.769 23.256 638.073 27.16 636.665 31.384C635.257 35.544 633.721 39.704 632.057 43.864ZM613.145 65.176C615.065 64.728 616.793 63.384 618.329 61.144C619.865 58.84 621.273 56.088 622.553 52.888C623.833 49.688 625.049 46.52 626.201 43.384C625.881 43 625.433 42.584 624.857 42.136C624.345 41.688 623.609 41.336 622.649 41.08C622.073 40.888 621.497 40.792 620.921 40.792C619.321 40.792 617.817 41.496 616.409 42.904C615.001 44.312 613.785 46.072 612.761 48.184C611.737 50.296 610.937 52.472 610.361 54.712C609.785 56.888 609.497 58.744 609.497 60.28C609.497 63.928 610.713 65.56 613.145 65.176ZM655.333 67.768C653.093 67.896 651.269 67.512 649.861 66.616C648.517 65.656 647.525 64.408 646.885 62.872C646.309 61.272 646.021 59.608 646.021 57.88C646.021 56.92 646.117 55.96 646.309 55C646.501 54.04 646.725 53.144 646.98 52.312C647.685 50.264 648.645 48.376 649.861 46.648C651.077 44.92 652.389 43.448 653.797 42.232C655.141 41.08 656.613 40.184 658.213 39.544C659.877 38.84 661.413 38.488 662.821 38.488C664.229 38.488 665.413 38.872 666.373 39.64C667.333 40.344 667.812 41.528 667.812 43.192C667.812 44.088 667.621 45.208 667.237 46.552C666.533 48.792 665.029 50.776 662.725 52.504C660.485 54.232 658.053 55.096 655.429 55.096C654.661 55.096 653.829 55 652.933 54.808C652.485 56.408 652.261 58.04 652.261 59.704C652.261 61.432 652.613 62.872 653.317 64.024C654.085 65.112 655.301 65.656 656.965 65.656C658.885 65.656 660.997 65.016 663.301 63.736C665.605 62.392 667.909 60.6 670.213 58.36C672.581 56.12 674.725 53.56 676.645 50.68C676.901 50.232 677.189 50.008 677.509 50.008C677.829 50.008 677.989 50.264 677.989 50.776C677.989 51.288 677.829 51.736 677.509 52.12C675.781 54.488 673.797 56.856 671.557 59.224C669.317 61.528 666.853 63.48 664.165 65.08C661.477 66.68 658.533 67.576 655.333 67.768ZM654.757 53.464C655.845 53.464 657.029 53.048 658.309 52.216C659.589 51.384 660.773 50.392 661.861 49.24C663.013 48.088 663.813 47.032 664.261 46.072C664.965 44.664 665.317 43.48 665.317 42.52C665.317 41.624 665.061 41.016 664.549 40.696C664.101 40.376 663.749 40.216 663.493 40.216C662.853 40.216 661.957 40.568 660.805 41.272C659.717 41.976 658.629 43.096 657.541 44.632C656.517 45.976 655.621 47.416 654.853 48.952C654.085 50.488 653.605 51.896 653.413 53.176C653.797 53.368 654.245 53.464 654.757 53.464ZM699.798 96.28C698.902 96.28 698.038 96.216 697.206 96.088C696.438 95.96 695.734 95.8 695.094 95.608C693.75 95.16 692.758 94.424 692.118 93.4C691.414 92.44 691.062 91.32 691.062 90.04C691.062 88.248 691.67 86.328 692.886 84.28C694.102 82.232 695.926 80.376 698.358 78.712C700.79 77.112 703.446 75.8 706.326 74.776C709.206 73.816 712.118 73.08 715.062 72.568C718.07 72.12 720.854 71.928 723.414 71.992C723.926 70.84 724.438 69.656 724.95 68.44C725.462 67.288 725.942 66.104 726.39 64.888C724.022 65.912 721.718 66.68 719.478 67.192C717.238 67.704 715.062 67.96 712.95 67.96C708.086 67.96 703.958 66.712 700.566 64.216C697.238 61.656 695.318 58.2 694.806 53.848C694.742 53.336 694.71 52.856 694.71 52.408C694.646 51.96 694.614 51.512 694.614 51.064C694.614 46.584 695.606 42.232 697.59 38.008C699.574 33.72 701.974 30.072 704.79 27.064C703.126 25.784 701.91 24.472 701.142 23.128C700.374 21.784 699.99 20.504 699.99 19.288C699.99 17.56 700.566 16.024 701.718 14.68C702.934 13.272 704.566 12.152 706.614 11.32C708.662 10.488 710.934 10.072 713.43 10.072C714.902 10.072 716.342 10.232 717.75 10.552C719.222 10.872 720.374 11.224 721.206 11.608C721.462 11.672 721.59 11.864 721.59 12.184C721.59 12.376 721.462 12.568 721.206 12.76C721.014 12.888 720.758 12.92 720.438 12.856C719.798 12.6 718.87 12.408 717.654 12.28C716.438 12.088 715.19 11.992 713.91 11.992C710.774 11.992 708.278 12.92 706.422 14.776C704.566 16.568 703.638 18.52 703.638 20.632C703.638 22.616 704.406 24.28 705.942 25.624C708.822 22.808 712.054 20.504 715.638 18.712C719.286 16.856 722.998 15.48 726.774 14.584C730.55 13.688 734.102 13.24 737.43 13.24C741.91 13.24 745.238 13.976 747.414 15.448C749.654 16.92 750.774 18.68 750.774 20.728C750.774 22.648 749.718 24.6 747.606 26.584C745.558 28.568 742.422 30.136 738.198 31.288C736.15 31.864 733.974 32.344 731.67 32.728C729.43 33.048 727.158 33.208 724.854 33.208C722.358 33.208 719.862 32.984 717.366 32.536C714.934 32.024 712.598 31.224 710.358 30.136C707.99 33.016 706.038 36.44 704.502 40.408C702.966 44.312 702.198 48.248 702.198 52.216C702.198 57.464 703.414 61.208 705.846 63.448C708.278 65.624 711.158 66.712 714.486 66.712C716.534 66.712 718.646 66.36 720.822 65.656C722.998 64.888 725.046 63.896 726.966 62.68C728.118 59.864 729.366 57.08 730.71 54.328C732.054 51.576 733.462 49.08 734.934 46.84C736.406 44.6 737.942 42.904 739.542 41.752C740.374 41.112 741.302 40.792 742.326 40.792C743.606 40.792 744.566 41.272 745.206 42.232C745.526 42.616 745.686 43.224 745.686 44.056C745.686 45.4 745.238 47 744.342 48.856C743.446 50.648 742.326 52.472 740.982 54.328C739.638 56.12 738.294 57.752 736.95 59.224C735.67 60.632 734.614 61.592 733.782 62.104C733.27 63.896 732.726 65.688 732.15 67.48C731.574 69.336 730.998 71.16 730.422 72.952C731.51 73.144 732.502 73.4 733.398 73.72C734.294 74.04 735.062 74.456 735.702 74.968C736.278 75.416 736.566 75.864 736.566 76.312C736.566 76.568 736.438 76.696 736.182 76.696C735.798 76.696 735.446 76.536 735.126 76.216C734.678 75.832 734.006 75.512 733.11 75.256C732.214 75.064 731.19 74.872 730.038 74.68C729.334 76.408 728.502 78.136 727.542 79.864C726.582 81.656 725.558 83.192 724.47 84.472C722.358 87.224 719.83 89.464 716.886 91.192C714.006 92.92 711.03 94.2 707.958 95.032C704.95 95.864 702.23 96.28 699.798 96.28ZM723.606 31.192C726.038 31.192 728.438 31 730.806 30.616C733.174 30.232 735.286 29.752 737.142 29.176C740.214 28.28 742.486 27.032 743.958 25.432C745.494 23.832 746.262 22.232 746.262 20.632C746.262 18.904 745.334 17.432 743.478 16.216C741.622 14.936 738.902 14.392 735.318 14.584C732.694 14.712 729.942 15.416 727.062 16.696C724.182 17.976 721.366 19.672 718.614 21.784C715.926 23.896 713.43 26.232 711.126 28.792C712.982 29.624 714.966 30.232 717.078 30.616C719.254 31 721.43 31.192 723.606 31.192ZM734.358 59.416C735.126 58.776 735.99 57.848 736.95 56.632C737.91 55.416 738.87 54.072 739.83 52.6C740.854 51.128 741.686 49.688 742.326 48.28C743.222 46.424 743.67 44.952 743.67 43.864C743.67 42.904 743.35 42.424 742.71 42.424C742.134 42.424 741.43 42.808 740.598 43.576C739.766 44.28 739.062 45.272 738.486 46.552C737.718 48.216 737.014 50.232 736.374 52.6C735.734 54.904 735.062 57.176 734.358 59.416ZM697.206 94.36C699.19 94.36 701.43 93.816 703.926 92.728C706.486 91.704 709.078 90.136 711.702 88.024C714.326 85.976 716.694 83.448 718.806 80.44C719.446 79.544 720.118 78.52 720.822 77.368C721.59 76.216 722.262 75.064 722.838 73.912C719.382 73.976 715.574 74.616 711.414 75.832C707.254 77.048 703.51 78.712 700.182 80.824C698.326 81.976 696.79 83.192 695.574 84.472C694.422 85.816 693.654 87.096 693.27 88.312C692.95 89.144 692.79 89.976 692.79 90.808C692.79 91.512 692.95 92.152 693.27 92.728C693.526 93.304 694.006 93.72 694.71 93.976C695.094 94.04 695.478 94.104 695.862 94.168C696.31 94.296 696.758 94.36 697.206 94.36ZM756.02 67.768C753.78 67.896 751.956 67.512 750.548 66.616C749.204 65.656 748.212 64.408 747.572 62.872C746.996 61.272 746.708 59.608 746.708 57.88C746.708 56.92 746.804 55.96 746.996 55C747.188 54.04 747.412 53.144 747.668 52.312C748.372 50.264 749.332 48.376 750.548 46.648C751.764 44.92 753.076 43.448 754.484 42.232C755.828 41.08 757.3 40.184 758.9 39.544C760.564 38.84 762.1 38.488 763.508 38.488C764.916 38.488 766.1 38.872 767.06 39.64C768.02 40.344 768.5 41.528 768.5 43.192C768.5 44.088 768.308 45.208 767.924 46.552C767.22 48.792 765.716 50.776 763.412 52.504C761.172 54.232 758.74 55.096 756.116 55.096C755.348 55.096 754.516 55 753.62 54.808C753.172 56.408 752.948 58.04 752.948 59.704C752.948 61.432 753.3 62.872 754.004 64.024C754.772 65.112 755.988 65.656 757.652 65.656C759.572 65.656 761.684 65.016 763.988 63.736C766.292 62.392 768.596 60.6 770.9 58.36C773.268 56.12 775.412 53.56 777.332 50.68C777.588 50.232 777.876 50.008 778.196 50.008C778.516 50.008 778.676 50.264 778.676 50.776C778.676 51.288 778.516 51.736 778.196 52.12C776.468 54.488 774.484 56.856 772.244 59.224C770.004 61.528 767.54 63.48 764.852 65.08C762.164 66.68 759.22 67.576 756.02 67.768ZM755.444 53.464C756.532 53.464 757.716 53.048 758.996 52.216C760.276 51.384 761.46 50.392 762.548 49.24C763.7 48.088 764.5 47.032 764.948 46.072C765.652 44.664 766.004 43.48 766.004 42.52C766.004 41.624 765.748 41.016 765.236 40.696C764.788 40.376 764.436 40.216 764.18 40.216C763.54 40.216 762.644 40.568 761.492 41.272C760.404 41.976 759.316 43.096 758.228 44.632C757.204 45.976 756.308 47.416 755.54 48.952C754.772 50.488 754.292 51.896 754.1 53.176C754.484 53.368 754.932 53.464 755.444 53.464ZM777.021 69.688C774.269 69.688 772.253 69.144 770.973 68.056C769.693 66.968 769.053 65.816 769.053 64.6C769.053 63.576 769.469 62.712 770.301 62.008C771.069 61.24 772.189 60.92 773.661 61.048C775.837 61.176 778.045 61.496 780.285 62.008C782.525 62.456 784.701 62.616 786.813 62.488C787.389 61.464 787.869 60.312 788.253 59.032C788.637 57.752 788.829 56.504 788.829 55.288C788.829 53.88 788.477 52.472 787.773 51.064C787.133 49.656 786.365 48.376 785.469 47.224C784.637 46.008 783.901 45.048 783.261 44.344C781.981 46.584 780.573 48.76 779.037 50.872C777.565 52.984 775.965 55.032 774.237 57.016C773.597 57.72 773.053 58.072 772.605 58.072C772.349 58.072 772.221 57.944 772.221 57.688C772.221 57.432 772.573 56.888 773.277 56.056C775.133 53.88 776.861 51.544 778.461 49.048C780.061 46.552 781.277 44.6 782.109 43.192C781.661 42.68 781.245 41.848 780.861 40.696C780.477 39.48 780.285 38.264 780.285 37.048C780.285 35.192 780.669 33.432 781.437 31.768C782.205 30.104 783.357 29.272 784.893 29.272C785.789 29.272 786.525 29.528 787.101 30.04C787.677 30.488 787.965 31.416 787.965 32.824C787.965 33.272 787.933 33.752 787.869 34.264C787.805 34.776 787.709 35.352 787.581 35.992C787.325 36.824 786.909 37.816 786.333 38.968C785.757 40.12 785.309 40.952 784.989 41.464C786.333 43.064 787.709 44.504 789.117 45.784C790.525 47 791.709 48.376 792.669 49.912C793.629 51.448 794.109 53.464 794.109 55.96C794.109 56.792 793.981 57.752 793.725 58.84C793.469 59.864 793.149 60.792 792.765 61.624C794.429 61.368 796.317 60.408 798.429 58.744C800.605 57.016 802.717 54.616 804.765 51.544C805.213 50.84 805.693 50.488 806.205 50.488C806.525 50.488 806.685 50.648 806.685 50.968C806.685 51.16 806.589 51.416 806.397 51.736C804.029 55.256 801.597 58.104 799.101 60.28C796.669 62.392 794.141 63.64 791.517 64.024C790.045 66.008 787.997 67.448 785.373 68.344C782.813 69.24 780.029 69.688 777.021 69.688ZM783.933 40.12C784.125 39.608 784.381 39 784.701 38.296C785.085 37.528 785.405 36.632 785.661 35.608C785.853 34.84 785.949 34.136 785.949 33.496C785.949 32.024 785.661 31.288 785.085 31.288C784.765 31.288 784.349 31.64 783.837 32.344C783.325 33.048 783.069 34.104 783.069 35.512C783.069 36.344 783.133 37.208 783.261 38.104C783.453 39 783.677 39.672 783.933 40.12ZM777.309 67.768C779.037 67.768 780.573 67.448 781.917 66.808C783.325 66.104 784.541 65.24 785.565 64.216C783.901 64.216 782.333 64.12 780.861 63.928C779.389 63.736 777.821 63.608 776.157 63.544C775.197 63.48 774.461 63.64 773.949 64.024C773.501 64.344 773.277 64.76 773.277 65.272C773.277 65.848 773.597 66.424 774.237 67C774.941 67.512 775.965 67.768 777.309 67.768ZM809.47 67.96C807.358 67.96 805.598 67.32 804.19 66.04C802.782 64.696 802.078 62.968 802.078 60.856C802.078 59.768 802.27 58.648 802.654 57.496C803.934 53.976 805.438 50.328 807.166 46.552C808.894 42.712 810.75 38.968 812.734 35.32H809.47C808.062 35.32 807.358 35.032 807.358 34.456C807.358 34.136 807.55 33.88 807.934 33.688C808.382 33.432 808.894 33.304 809.47 33.304C810.11 33.24 810.782 33.24 811.486 33.304C812.19 33.304 812.958 33.304 813.79 33.304L822.046 18.136C822.302 17.624 822.878 17.304 823.774 17.176C824.734 16.984 825.438 16.888 825.886 16.888C826.59 16.888 827.262 17.048 827.902 17.368C828.606 17.688 828.83 18.04 828.574 18.424C828.382 18.68 827.966 19.384 827.326 20.536C826.75 21.688 826.046 23.032 825.214 24.568C824.382 26.104 823.518 27.672 822.622 29.272C821.79 30.808 821.054 32.152 820.414 33.304H824.542C826.142 33.304 827.838 33.304 829.63 33.304C831.486 33.24 833.15 33.144 834.622 33.016C836.094 32.888 837.054 32.728 837.502 32.536C837.886 32.344 838.27 32.248 838.654 32.248C839.294 32.248 839.614 32.504 839.614 33.016C839.614 33.592 839.166 34.136 838.27 34.648C837.63 34.968 836.382 35.192 834.526 35.32C832.67 35.384 830.526 35.416 828.094 35.416H824.83C823.998 35.416 823.102 35.416 822.142 35.416C821.182 35.352 820.254 35.32 819.358 35.32C817.246 39.224 815.07 43.096 812.83 46.936C810.654 50.712 808.894 54.744 807.55 59.032C807.166 60.248 806.974 61.336 806.974 62.296C806.974 64.6 807.998 65.752 810.046 65.752C811.07 65.752 812.35 65.368 813.886 64.6C816.702 63.192 819.454 61.176 822.142 58.552C824.83 55.928 827.166 53.208 829.15 50.392C829.47 49.88 829.822 49.624 830.206 49.624C830.462 49.624 830.59 49.784 830.59 50.104C830.59 50.424 830.462 50.808 830.206 51.256C828.158 54.328 825.886 57.144 823.39 59.704C820.958 62.264 818.174 64.472 815.038 66.328C813.054 67.416 811.198 67.96 809.47 67.96ZM841.543 35.896C840.583 35.896 839.847 35.576 839.335 34.936C838.823 34.296 838.567 33.56 838.567 32.728C838.567 31.832 838.887 31.096 839.527 30.52C840.231 29.944 840.967 29.656 841.735 29.656C842.695 29.656 843.463 29.976 844.039 30.616C844.615 31.192 844.903 31.896 844.903 32.728C844.903 33.56 844.551 34.296 843.847 34.936C843.143 35.576 842.375 35.896 841.543 35.896ZM836.935 68.632C834.759 68.632 833.031 67.832 831.751 66.232C830.471 64.568 829.831 62.488 829.831 59.992C829.831 58.2 830.151 56.376 830.791 54.52C831.111 53.496 831.495 52.312 831.943 50.968C832.391 49.56 832.807 48.344 833.191 47.32C832.359 48.536 831.495 49.752 830.599 50.968C829.767 52.184 828.839 53.368 827.815 54.52C827.239 55.16 826.695 55.48 826.183 55.48C825.927 55.48 825.799 55.352 825.799 55.096C825.799 54.84 825.959 54.52 826.279 54.136C828.519 51.256 830.375 48.6 831.847 46.168C833.383 43.736 834.535 41.912 835.303 40.696C835.815 39.8 836.647 39.256 837.799 39.064C838.951 38.872 839.943 38.808 840.775 38.872C841.031 38.872 841.319 38.904 841.639 38.968C841.959 38.968 842.439 38.968 843.079 38.968C842.695 39.736 842.087 41.048 841.255 42.904C840.487 44.696 839.687 46.648 838.855 48.76C838.023 50.808 837.287 52.632 836.647 54.232C836.071 55.64 835.591 57.048 835.207 58.456C834.887 59.864 834.727 61.144 834.727 62.296C834.727 63.512 834.951 64.504 835.399 65.272C835.847 66.04 836.551 66.424 837.511 66.424C838.791 66.424 840.263 65.912 841.927 64.888C843.591 63.864 845.255 62.584 846.919 61.048C848.647 59.512 850.215 57.944 851.623 56.344C853.095 54.68 854.247 53.208 855.079 51.928C855.335 51.544 855.623 51.352 855.943 51.352C856.263 51.352 856.423 51.608 856.423 52.12C856.423 52.504 856.295 52.856 856.039 53.176C852.711 57.72 849.479 61.432 846.343 64.312C843.271 67.192 840.135 68.632 836.935 68.632ZM863.549 68.248C860.413 68.248 858.141 67.128 856.733 64.888C855.325 62.584 854.621 59.928 854.621 56.92C854.621 54.104 855.133 51.288 856.157 48.472C857.245 45.592 858.717 43.192 860.573 41.272C862.493 39.352 864.733 38.392 867.293 38.392C867.421 38.392 867.709 38.424 868.157 38.488C868.605 38.488 868.893 38.52 869.021 38.584C870.941 36.664 872.925 35.704 874.973 35.704C876.829 35.704 878.397 36.536 879.677 38.2C881.021 39.8 881.693 42.072 881.693 45.016C881.693 47.064 881.373 49.24 880.733 51.544C880.093 53.848 879.261 56.024 878.237 58.072C877.277 60.056 876.221 61.688 875.069 62.968C875.325 63.032 875.549 63.064 875.741 63.064C875.933 63.064 876.157 63.064 876.413 63.064C878.653 63.064 880.861 62.488 883.037 61.336C885.213 60.184 887.261 58.68 889.181 56.824C891.165 54.904 892.893 52.824 894.365 50.584C894.685 50.2 894.909 50.008 895.037 50.008C895.357 50.008 895.517 50.232 895.517 50.68C895.517 51.128 895.389 51.512 895.133 51.832C894.493 52.984 893.501 54.328 892.157 55.864C890.813 57.336 889.245 58.808 887.453 60.28C885.725 61.752 883.869 62.968 881.885 63.928C879.901 64.888 877.917 65.368 875.933 65.368C875.485 65.368 875.005 65.336 874.493 65.272C874.045 65.144 873.597 65.048 873.149 64.984C872.125 65.944 870.653 66.712 868.733 67.288C866.813 67.928 865.085 68.248 863.549 68.248ZM872.381 62.104C874.237 60.056 875.677 57.432 876.701 54.232C877.725 51.032 878.237 47.96 878.237 45.016C878.237 44.632 878.237 44.248 878.237 43.864C878.237 43.48 878.205 43.128 878.141 42.808C877.949 41.144 877.565 39.96 876.989 39.256C876.413 38.488 875.741 38.104 874.973 38.104C873.821 38.104 872.605 38.808 871.325 40.216C870.109 41.56 869.245 43.192 868.733 45.112C868.221 46.968 867.965 48.92 867.965 50.968C867.965 53.336 868.317 55.576 869.021 57.688C869.725 59.736 870.845 61.208 872.381 62.104ZM865.469 65.752C867.325 65.752 869.053 65.112 870.653 63.832C868.861 62.552 867.549 60.792 866.717 58.552C865.885 56.312 865.469 53.944 865.469 51.448C865.469 49.656 865.661 47.896 866.045 46.168C866.493 44.376 867.101 42.776 867.869 41.368C866.653 41.624 865.469 42.68 864.317 44.536C863.165 46.392 862.205 48.568 861.437 51.064C860.733 53.56 860.381 55.96 860.381 58.264C860.381 60.376 860.765 62.168 861.533 63.64C862.301 65.048 863.613 65.752 865.469 65.752ZM889.319 68.536C890.919 65.016 892.519 61.4 894.119 57.688C895.719 53.976 897.191 50.52 898.535 47.32C897.703 48.536 896.839 49.752 895.943 50.968C895.111 52.184 894.183 53.368 893.159 54.52C892.583 55.16 892.071 55.48 891.623 55.48C891.367 55.48 891.239 55.352 891.239 55.096C891.239 54.904 891.399 54.616 891.719 54.232C893.959 51.352 895.815 48.696 897.287 46.264C898.759 43.768 899.879 41.912 900.647 40.696C901.159 39.8 901.799 39.32 902.567 39.256C903.399 39.128 904.103 39.064 904.679 39.064C904.935 39.064 905.383 39.096 906.023 39.16C906.663 39.16 907.303 39.16 907.943 39.16C907.687 39.672 907.175 40.568 906.407 41.848C905.703 43.128 904.935 44.472 904.103 45.88C903.335 47.288 902.695 48.568 902.183 49.72C903.079 48.632 904.327 47.096 905.927 45.112C907.591 43.064 909.511 41.368 911.687 40.024C913.735 38.808 915.591 38.2 917.255 38.2C920.007 38.2 921.383 39.64 921.383 42.52C921.383 43.288 921.255 44.152 920.999 45.112C920.743 46.072 920.327 47.096 919.751 48.184C918.535 50.552 917.223 53.048 915.815 55.672C914.471 58.232 913.479 60.632 912.839 62.872C912.775 63.128 912.711 63.352 912.647 63.544C912.647 63.736 912.647 63.928 912.647 64.12C912.647 65.272 913.223 65.848 914.375 65.848C915.015 65.848 915.751 65.656 916.583 65.272C918.375 64.504 920.295 63.288 922.343 61.624C924.391 59.96 926.311 58.136 928.103 56.152C929.959 54.168 931.431 52.344 932.519 50.68C932.903 50.04 933.287 49.72 933.671 49.72C933.991 49.72 934.151 49.88 934.151 50.2C934.151 50.584 934.023 50.936 933.767 51.256C932.615 52.984 931.111 54.936 929.255 57.112C927.463 59.224 925.511 61.208 923.399 63.064C921.351 64.856 919.367 66.168 917.447 67C916.103 67.512 914.823 67.768 913.607 67.768C911.943 67.768 910.471 67.352 909.191 66.52C907.975 65.624 907.367 64.312 907.367 62.584C907.367 62.328 907.367 62.072 907.367 61.816C907.431 61.496 907.495 61.208 907.559 60.952C908.071 58.584 909.095 56.152 910.631 53.656C912.167 51.096 913.575 48.632 914.855 46.264C915.559 44.856 915.911 43.768 915.911 43C915.911 41.976 915.399 41.464 914.375 41.464C913.927 41.464 913.415 41.56 912.839 41.752C912.263 41.944 911.655 42.296 911.015 42.808C909.671 43.704 908.263 45.08 906.791 46.936C905.319 48.728 903.815 50.936 902.279 53.56C900.871 56.056 899.559 58.552 898.343 61.048C897.127 63.544 896.135 65.624 895.367 67.288C894.407 67.288 893.287 67.448 892.007 67.768C890.791 68.088 889.895 68.344 889.319 68.536Z" fill="black"/>
</svg>
